HIERARCHY
ROOT hip
{
	OFFSET 0.000000 0.000000 0.000000 
	CHANNELS 6 Xposition Yposition Zposition Xrotation Zrotation Yrotation
	JOINT abdomen
	{
		OFFSET 0.000000 3.402643 0.000000 
		CHANNELS 3 Xrotation Zrotation Yrotation
		JOINT chest
		{
			OFFSET 0.000000 8.438565 -0.680529 
			CHANNELS 3 Xrotation Zrotation Yrotation
			JOINT neck
			{
				OFFSET 0.000000 10.207942 -0.272212 
				CHANNELS 3 Xrotation Zrotation Yrotation
				JOINT head
				{
					OFFSET 0.000000 3.130431 0.000000 
					CHANNELS 3 Xrotation Zrotation Yrotation
					End Site
					{
						OFFSET 0.000000 3.130435 0.000000 
					}
				}
			}
			JOINT lCollar
			{
				OFFSET 3.470700 6.669187 -0.816635 
				CHANNELS 3 Yrotation Zrotation Xrotation
				JOINT lShldr
				{
					OFFSET 3.198488 0.000000 0.000000 
					CHANNELS 3 Zrotation Yrotation Xrotation
					JOINT lForeArm
					{
						OFFSET 10.139888 0.000000 0.000000 
						CHANNELS 3 Yrotation Zrotation Xrotation
						JOINT lHand
						{
							OFFSET 8.370511 0.000000 0.000000 
							CHANNELS 3 Zrotation Yrotation Xrotation
							End Site
							{
								OFFSET 4.083176 0.000000 0.000000 
							}
						}
					}
				}
			}
			JOINT rCollar
			{
				OFFSET -3.470700 6.669187 -0.816635 
				CHANNELS 3 Yrotation Zrotation Xrotation
				JOINT rShldr
				{
					OFFSET -3.198488 0.000000 0.000000 
					CHANNELS 3 Zrotation Yrotation Xrotation
					JOINT rForeArm
					{
						OFFSET -10.139888 0.000000 0.000000 
						CHANNELS 3 Yrotation Zrotation Xrotation
						JOINT rHand
						{
							OFFSET -8.370511 0.000000 0.000000 
							CHANNELS 3 Zrotation Yrotation Xrotation
							End Site
							{
								OFFSET -4.083176 0.000000 0.000000 
							}
						}
					}
				}
			}
		}
	}
	JOINT lThigh
	{
		OFFSET 5.308129 -1.633274 1.361059 
		CHANNELS 3 Xrotation Zrotation Yrotation
		JOINT lShin
		{
			OFFSET -2.041588 -20.007561 0.000000 
			CHANNELS 3 Xrotation Zrotation Yrotation
			JOINT lFoot
			{
				OFFSET 0.000000 -19.190928 -1.224953 
				CHANNELS 3 Xrotation Yrotation Zrotation
				End Site
				{
					OFFSET 0.000000 -2.449906 4.627600 
				}
			}
		}
	}
	JOINT rThigh
	{
		OFFSET -5.308129 -1.633274 1.361059 
		CHANNELS 3 Xrotation Zrotation Yrotation
		JOINT rShin
		{
			OFFSET 2.041588 -20.007561 0.000000 
			CHANNELS 3 Xrotation Zrotation Yrotation
			JOINT rFoot
			{
				OFFSET 0.000000 -19.190928 -1.224953 
				CHANNELS 3 Xrotation Yrotation Zrotation
				End Site
				{
					OFFSET 0.000000 -2.449906 4.627600 
				}
			}
		}
	}
}
MOTION
Frames: 16
Frame Time: 0.033333
1.617085 25.375242 1.617085 -89.607887 -0.461349 0.017888 5.029716 8.384645 -10.449121 -10.399833 0.596002 8.398106 17.254242 -10.946084 9.448725 10.524219 0.508720 -0.030344 -3.797759 -11.938586 0.669705 -42.562702 -37.815651 -20.535349 -63.474861 -2.954123 1.663162 35.032703 10.588747 -54.919262 27.635544 0.164414 3.995300 35.729305 10.236531 -52.202629 45.663040 2.616993 2.036080 37.065666 20.555788 72.552490 -39.984550 15.191516 13.359315 50.550617 0.213126 -4.194148 60.939323 -2.959923 1.326112 -45.328094 -43.978539 -12.175072 45.783470 0.058828 4.004223 40.284760 12.990570 15.377646 
1.617085 24.864414 1.617085 -91.902946 -0.394314 0.016257 5.901995 8.536386 -10.319312 -10.712315 0.615819 8.515388 23.782207 -12.040996 8.840862 10.524219 0.508720 -0.030344 -2.074962 -14.846473 12.095017 -34.280155 -55.769070 -29.475445 -50.014359 -2.716158 1.959663 40.528385 1.251110 -66.539589 26.992659 3.398507 15.100118 31.270006 18.258640 -60.350521 45.329010 2.614193 2.038302 38.624046 22.444096 74.238380 -45.667767 16.363260 12.231951 57.069656 0.658882 -4.405904 53.799145 -3.063215 0.977613 -49.419754 -44.496918 -9.537809 45.325226 0.088095 3.985820 40.100418 12.103135 16.111731 
1.617085 25.214207 1.617085 -93.529678 -0.328610 0.019866 6.953138 8.723594 -10.163934 -11.522566 0.790864 8.153492 28.546717 -12.670349 8.254587 10.524219 0.508720 -0.030344 0.772357 -17.920370 25.000000 -3.522961 -73.491562 -61.519638 -28.711779 -2.226192 2.284763 51.311253 -9.758062 -82.184570 24.827814 7.016759 25.000000 24.656788 25.962879 -68.565041 44.630459 2.596060 2.050770 40.438232 24.445364 76.181877 -53.818462 17.832342 10.413529 68.907921 1.477996 -4.635991 38.876472 -3.084875 0.324273 -56.470318 -45.074200 -4.943591 50.023655 -0.222142 4.167470 35.774883 10.760570 17.022633 
1.617085 25.836039 1.617085 -94.613983 -0.218550 0.018553 8.035236 8.917597 -9.998670 -12.420658 0.986080 7.670763 29.851595 -12.701937 7.694108 10.524219 0.508720 -0.030344 3.377581 -20.246227 25.000000 40.860500 -77.511276 -105.330910 -16.460445 -1.896258 2.384552 58.111229 -14.889996 -90.692490 21.470533 9.369144 25.000000 8.912122 37.339088 -81.209648 38.654102 2.463781 2.150120 47.996075 30.326675 84.017509 -61.265446 18.914045 8.575762 79.900360 2.277148 -4.659887 23.380640 -2.961633 -0.308476 -66.678284 -45.184616 1.776527 60.519241 -0.926065 4.456815 26.560184 8.832537 18.060194 
1.617085 26.158119 1.617085 -95.301125 -0.130852 0.006039 8.988790 9.075299 -9.850354 -12.996632 1.103614 7.432171 26.295576 -12.146667 7.148516 10.524219 0.508720 -0.030344 4.136991 -21.838335 25.000000 32.844517 -80.435501 -95.402542 -15.973089 -1.885479 2.385152 57.262310 -15.883992 -89.140732 18.120247 9.767288 25.000000 -16.616110 47.929699 -100.311440 28.499458 2.210725 2.274557 62.980827 37.555950 99.355301 -64.700218 19.284090 7.655274 83.945839 2.558972 -4.642495 14.407299 -2.819233 -0.759934 -75.519295 -44.566498 7.581185 70.779663 -1.630907 4.608798 17.072294 6.869297 18.846600 
1.617085 26.163656 1.617085 -95.712685 -0.048605 0.002417 9.833861 9.226136 -9.718403 -13.250510 1.133312 7.421253 20.264954 -11.505986 6.119522 10.524219 0.508720 -0.030344 2.583340 -22.986370 25.000000 -23.295790 -80.980904 -37.600956 -18.120928 -1.943260 2.374538 54.599102 -16.085911 -85.087524 15.552740 8.952811 25.000000 -29.917828 55.435272 -109.404900 23.125364 2.070285 2.328387 74.105049 41.031086 110.607597 -62.549622 18.960499 8.313370 77.425095 2.091524 -4.664186 15.547549 -2.868522 -0.830649 -78.849617 -44.137344 9.748966 74.745071 -1.914012 4.646271 11.850230 5.488877 19.241913 
1.617085 26.219233 1.617085 -95.996071 0.017342 -0.000905 10.699773 9.361637 -9.570863 -13.494626 1.162996 7.420038 15.411931 -11.199533 4.232604 10.524219 0.508720 -0.030344 -0.828200 -23.659039 25.000000 -57.606544 -71.981857 -2.243379 -22.090799 -2.049683 2.342619 50.680794 -15.384943 -79.300552 13.700330 7.639941 25.000000 -21.483067 64.212051 -99.076485 24.092293 2.089602 2.325605 76.971146 43.117939 113.362282 -56.824608 18.094917 9.904154 64.231972 1.146439 -4.548433 22.462633 -3.069395 -0.661268 -72.391411 -44.804054 5.338475 65.975525 -1.307698 4.553197 15.534625 5.484975 19.095833 
1.617085 26.319153 1.617085 -96.035133 0.016428 -0.010629 11.575512 9.511146 -9.434093 -13.719210 1.192641 7.418981 11.201649 -11.053099 1.777044 10.524219 0.508720 -0.030344 -5.600467 -23.623571 25.000000 -68.185883 -58.908878 8.391754 -27.064903 -2.177721 2.303950 46.176792 -13.734138 -72.585831 12.207885 6.021617 25.000000 5.980427 71.617470 -69.641968 26.614059 2.160605 2.297997 78.359001 45.270561 114.593880 -49.452991 16.699324 11.580330 49.692142 0.168133 -4.177064 30.313391 -3.192558 -0.597617 -58.544174 -45.009037 -3.925335 49.605370 -0.175715 4.140956 24.027338 6.337380 18.674765 
1.617085 26.441246 1.617085 -95.693291 0.028095 -0.001392 12.452676 9.654925 -9.283245 -13.934028 1.222270 7.408134 6.069510 -10.970878 -0.808013 10.524219 0.508720 -0.030344 -10.845248 -22.895088 25.000000 -73.133469 -44.387104 12.054342 -32.208908 -2.316456 2.239386 41.714104 -11.274180 -65.736359 10.508510 4.423911 25.000000 50.339291 69.374779 -23.241791 30.167942 2.252596 2.260174 78.472702 47.491085 114.507385 -42.336975 15.054420 12.480251 39.111851 -0.457948 -3.731594 34.253422 -2.928562 -1.009225 -44.381443 -43.413021 -12.560167 36.838070 0.560625 3.629702 28.763023 6.783329 18.826523 
1.617085 26.563480 1.617085 -95.048714 0.033517 -0.001472 13.309988 9.790600 -9.142519 -14.139081 1.251884 7.407047 -0.442877 -11.051502 -3.285164 10.524219 0.508720 -0.030344 -15.992463 -21.530777 25.000000 -76.640221 -29.706488 12.700397 -36.706657 -2.419081 2.182092 37.774811 -8.380574 -59.437809 8.448590 3.133840 25.000000 74.110405 57.260464 2.681432 34.219803 2.350204 2.215995 77.563271 49.711926 113.374252 -35.718407 13.278643 12.244830 33.499386 -0.759256 -3.472309 33.377548 -1.993126 -2.167660 -31.384251 -40.168404 -18.494099 30.834469 0.878770 3.308050 26.652611 5.916002 20.055592 
1.617085 26.674484 1.617085 -94.199127 0.027888 -0.001018 14.148324 9.924373 -8.997729 -14.324624 1.271750 7.405121 -7.418825 -11.374921 -5.627365 10.524219 0.508720 -0.030344 -20.839485 -19.507029 18.278185 -79.850998 -15.897438 11.232820 -39.740650 -2.489543 2.137555 34.661034 -5.592518 -54.195477 6.310881 2.171711 22.518564 82.800865 41.838631 13.692055 38.232304 2.450377 2.160485 75.918167 51.830509 111.520386 -28.708693 11.375543 11.201754 29.797731 -0.938963 -3.282548 30.516428 -0.482891 -3.747280 -18.447433 -35.544365 -22.823692 27.003544 1.059097 3.115318 21.773788 4.238046 21.615839 
1.617085 26.768864 1.617085 -93.222610 0.017019 -0.000476 14.946988 10.037963 -8.857740 -14.510146 1.301328 7.394335 -14.355187 -11.920751 -7.751696 10.524219 0.508720 -0.030344 -25.110670 -16.965361 11.925836 -83.037781 -3.954677 7.824291 -40.465652 -2.506289 2.129015 32.566486 -3.529212 -50.486622 4.239983 1.558633 15.998741 85.770943 26.039230 19.142231 41.673321 2.535161 2.101716 73.925896 53.756992 109.321213 -21.466652 9.565013 9.881612 27.257420 -1.060355 -3.128109 26.536327 1.247405 -5.253579 -7.745517 -30.991482 -25.617895 24.931742 1.136959 2.980675 16.221241 2.865509 22.741583 
1.617085 26.846615 1.617085 -92.226532 0.011382 -0.000219 15.696299 10.154237 -8.728598 -14.676159 1.321151 7.392574 -20.799194 -12.599260 -9.541936 10.524219 0.508720 -0.030344 -28.623295 -14.149310 6.180429 -85.103279 5.510558 0.394359 -36.776756 -2.426421 2.176682 31.590536 -2.554043 -48.699039 2.422344 1.207379 9.808911 86.208633 11.305091 22.125784 44.013905 2.580344 2.064067 72.128418 55.454590 107.334961 -14.252535 7.994014 8.842882 25.096275 -1.157467 -3.012274 22.244307 2.784529 -6.245990 -0.882094 -28.041403 -27.921785 24.373692 1.166017 2.958537 11.915754 2.913234 22.986948 
1.617085 26.885410 1.617085 -91.289063 0.000220 0.000000 16.386364 10.260988 -8.607024 -14.832405 1.340951 7.390929 -26.233652 -13.278088 -10.920271 10.524219 0.508720 -0.030344 -31.255478 -11.375363 1.143299 -85.520622 13.074194 -10.895534 -28.911623 -2.226166 2.285840 31.475264 -2.422145 -48.474991 1.015648 0.984862 4.161076 85.360161 -1.337343 23.497988 44.711327 2.603539 2.043916 71.090561 56.897068 106.165863 -7.264650 6.580822 8.674238 22.532734 -1.264245 -2.865481 18.409485 3.588829 -6.384089 -0.374384 -29.058168 -31.563049 28.313955 0.989717 3.173653 9.216288 6.537513 21.747772 
1.617085 26.888258 1.617085 -90.498016 -0.005348 0.000022 17.006626 10.349606 -8.494157 -14.978885 1.360730 7.389407 -30.256372 -13.738604 -11.843328 10.524219 0.508720 -0.030344 -32.957829 -8.910443 -3.216383 -84.977318 19.414343 -23.138927 -19.582426 -1.979886 2.360704 31.832254 -2.796804 -49.140556 0.149930 0.742658 -0.783813 82.413605 -11.208973 20.498489 40.665977 2.507294 2.121905 72.751862 57.760395 107.871841 -1.766649 4.991252 17.476864 21.103176 -1.332482 -2.765923 14.418115 -2.815450 -0.758789 -3.965422 -33.046585 -35.903084 35.081879 0.656999 3.527871 7.858006 12.017330 19.225960 
1.617085 26.890957 1.617085 -90.498016 -0.005348 0.000022 17.326553 10.394720 -8.440379 -15.057009 1.370631 7.388492 -31.773869 -13.164542 -10.584118 10.524219 0.508720 -0.030344 -31.888634 -7.835682 -6.188098 -83.072586 24.078653 -31.693909 -11.531354 -1.758080 2.399444 32.320530 -3.280737 -50.037560 1.677829 0.022368 -3.828957 78.314423 -18.283781 10.706289 32.108421 2.301458 2.244152 75.923042 57.826595 111.232651 -1.806728 6.947470 21.221350 23.608898 -1.218472 -2.940232 11.179918 -6.784557 -0.261857 -6.329625 -35.770275 -38.779518 37.365757 0.529663 3.634945 8.395534 15.287425 17.348223 
